# AST/ASF file generated using VICON BodyLanguage
# -----------------------------------------------
:version 1.10
:name VICON
:units
  mass 1.0
  length 0.45
  angle deg
:documentation
   .ast/.asf automatically generated from VICON data using
   VICON BodyBuilder and BodyLanguage model FoxedUp or BRILLIANT.MOD
:root
   order TX TY TZ RX RY RZ
   axis XYZ
   position 0 0 0  
   orientation 0 0 0 
:bonedata
  begin
     id 1 
     name lhipjoint
     direction 0.650112 -0.723553 0.232005 
     length 2.45805 
     axis 0 0 0  XYZ
  end
  begin
     id 2 
     name lfemur
     direction 0.34202 -0.939693 0  
     length 7.00073  
     axis 0 0 20  XYZ
    dof rx ry rz
    limits (-160.0 20.0)
           (-70.0 70.0)
           (-60.0 70.0)
  end
  begin
     id 3 
     name ltibia
     direction 0.34202 -0.939693 0   
     length 7.8748   
     axis 0 0 20   XYZ
    dof rx
    limits (-10.0 170.0)
  end
  begin
     id 4 
     name lfoot
     direction 0.0542825 -0.14914 0.987325   
     length 1.75978   
     axis -90 7.62852e-016 20   XYZ
    dof rx rz
    limits (-45.0 90.0)
           (-70.0 20.0)
  end
  begin
     id 5 
     name ltoes
     direction 1.53509e-011 -4.21906e-011 1   
     length 0.893912   
     axis -90 7.62852e-016 20   XYZ
    dof rx
    limits (-90.0 20.0)
  end
  begin
     id 6 
     name rhipjoint
     direction -0.637897 -0.733345 0.235145   
     length 2.42522  
     axis 0 0 0  XYZ 
  end
  begin
     id 7 
     name rfemur
     direction -0.34202 -0.939693 0   
     length 7.02549   
     axis 0 0 -20   XYZ
    dof rx ry rz
    limits (-160.0 20.0)
           (-70.0 70.0)
           (-70.0 60.0)
  end
  begin
     id 8 
     name rtibia
     direction -0.34202 -0.939693 0   
     length 7.71512   
     axis 0 0 -20   XYZ
    dof rx
    limits (-10.0 170.0)
 end
 begin
     id 9 
     name rfoot
     direction -0.0822618 -0.226012 0.970645   
     length 1.90014  
     axis -90 -7.62852e-016 -20   XYZ
    dof rx rz
    limits (-45.0 90.0)
           (-20.0 70.0)
  end
  begin
     id 10 
     name rtoes
     direction -1.53542e-011 -4.21872e-011 1   
     length 0.957341   
     axis -90 -7.62852e-016 -20   XYZ
    dof rx
    limits (-90.0 20.0)
  end
  begin
     id 11 
     name lowerback
     direction -0.0022947 0.999774 -0.0211557   
     length 1.89909   
     axis 0 0 0   XYZ
    dof rx ry rz
    limits (-20.0 45.0)
           (-30.0 30.0)
           (-30.0 30.0)
  end
  begin
     id 12 
     name upperback
     direction 0.0107737 0.998635 0.0511027   
     length 1.8853   
     axis 0 0 0   XYZ
    dof rx ry rz
    limits (-20.0 45.0)
           (-30.0 30.0)
           (-30.0 30.0)
  end
  begin
     id 13 
     name thorax
     direction 0.011824 0.998136 0.0598754   
     length 1.88911   
     axis 0 0 0   XYZ
    dof rx ry rz
    limits (-20.0 45.0)
           (-30.0 30.0)
           (-30.0 30.0)
  end
  begin
     id 14 
     name lowerneck
     direction -0.0685355 0.990319 0.120714   
     length 1.91222   
     axis 0 0 0   XYZ
    dof rx ry rz
    limits (-20.0 45.0)
           (-30.0 30.0)
           (-30.0 30.0)
  end
  begin
     id 15 
     name upperneck
     direction 0.0886204 0.955665 -0.280805   
     length 1.92526   
     axis 0 0 0   XYZ
    dof rx ry rz
    limits (-20.0 45.0)
           (-30.0 30.0)
           (-30.0 30.0)
  end
  begin
     id 16
     name head
     direction 0.0233423 0.993502 -0.111393  
     length 1.96056  
     axis 0 0 0   XYZ
    dof rx ry rz
    limits (-20.0 45.0)
           (-30.0 30.0)
           (-30.0 30.0)
  end
  begin
     id 17 
     name lclavicle
     direction 0.941873 0.32922 0.0670041  
     length 3.31705  
     axis 0 0 0   XYZ
    dof ry rz
    limits (-20.0 10.0)
           (0.0 20.0)
  end
  begin
     id 18 
     name lhumerus
     direction 1 -4.4898e-011 3.38707e-028   
     length 5.29277   
     axis 180 -30 -90   XYZ
    dof rx ry rz
    limits (-60.0 90.0)
           (-90.0 90.0)
           (-90.0 90.0)
  end
  begin
     id 19
     name lradius
     direction 1 -4.48952e-011 1.63213e-028   
     length 2.85226   
     axis 180 -30 -90   XYZ
    dof rx
    limits (-10.0 170.0)
  end
  begin
     id 20
     name lwrist
     direction 1 -4.49001e-011 1.27856e-027   
     length 1.42613   
     axis -1.61767e-015 90 90   XYZ
    dof ry
    limits (-180.0 0.0)
 end
  begin
     id 21 
     name lhand
     direction 1 -4.48976e-011 2.55931e-027   
     length 0.602097   
     axis -1.63363e-015 90 90   XYZ
    dof rx rz
    limits (-90.0 90.0)
           (-45.0 45.0)
  end
  begin
     id 22 
     name lfingers
     direction 1 -4.48986e-011 5.11684e-027   
     length 0.485426   
     axis -3.26723e-015 90 90   XYZ
    dof rx
    limits (0.0 90.0)
  end
  begin
     id 23
     name lthumb
     direction 0.707107 -6.34915e-011 0.707107   
     length 0.696978   
     axis -90 45 -2.25915e-014   XYZ
    dof rx rz
    limits (-45.0 45.0)
           (-45.0 45.0)
  end
  begin
     id 24 
     name rclavicle
     direction -0.939974 0.327078 0.0973096   
     length 3.10337  
     axis 0 0 0   XYZ 
    dof ry rz
    limits (-10.0 20.0)
           (-20.0 0.0)
  end
  begin
     id 25 
     name rhumerus
     direction -1 -4.48975e-011 1.83745e-027  
     length 5.13304   
     axis 180 30 90   XYZ
    dof rx ry rz
    limits (-90.0 60.0)
           (-90.0 90.0)
           (-90.0 90.0)
  end
  begin
     id 26 
     name rradius
     direction -1 -4.48977e-011 7.1775e-029   
     length 2.74305   
     axis 180 30 90   XYZ
    dof rx
    limits (-10.0 170.0)
  end
  begin
     id 27 
     name rwrist
     direction -1 -4.48977e-011 1.27963e-027   
     length 1.37152   
     axis -1.61767e-015 -90 -90   XYZ
    dof ry
    limits (-180.0 0.0)
  end
  begin
     id 28
     name rhand
     direction -1 -4.4888e-011 2.56782e-027   
     length 0.767976   
     axis -1.63363e-015 -90 -90   XYZ
    dof rx rz
    limits (-90.0 90.0)
           (-45.0 45.0)
  end
  begin
     id 29
     name rfingers
     direction -1 -4.48947e-011 5.12384e-027   
     length 0.619162   
     axis -3.26723e-015 -90 -90   XYZ
    dof rx
    limits (0.0 90.0)
  end
  begin
     id 30
     name rthumb
     direction -0.707107 -6.34857e-011 0.707107   
     length 0.888997   
     axis -90 -45 2.25915e-014   XYZ
    dof rx rz
    limits (-45.0 45.0)
           (-45.0 45.0)
  end
:hierarchy
  begin
    root lhipjoint rhipjoint lowerback
    lhipjoint lfemur
    lfemur ltibia
    ltibia lfoot
    lfoot ltoes
    rhipjoint rfemur
    rfemur rtibia
    rtibia rfoot
    rfoot rtoes
    lowerback upperback
    upperback thorax
    thorax lowerneck lclavicle rclavicle
    lowerneck upperneck
    upperneck head
    lclavicle lhumerus
    lhumerus lradius
    lradius lwrist
    lwrist lhand lthumb
    lhand lfingers
    rclavicle rhumerus
    rhumerus rradius
    rradius rwrist
    rwrist rhand rthumb
    rhand rfingers
  end

#!OML:ASF F:\VICON\USERDATA\INSTALL\rory3\rory3.ASF
:FULLY-SPECIFIED
:DEGREES
1504
root 0.481158 16.6304 -2.43135 17.8934 -19.9835 -4.25969
lowerback 20.0121 -4.094 -9.28397
upperback 6.95 -7.33441 -4.24724
thorax -2.97309 -3.67451 2.2433
lowerneck -14.1886 -7.66775 -11.6355
upperneck 23.4753 -13.9185 20.9896
head 12.6321 -5.29011 7.80374
rclavicle -1.66979e-013 -4.13472e-014
rhumerus -446.519 -48.5284 -309.936
rradius 18.3284
rwrist 61.8825
rhand -19.033 9.41937
rfingers 7.12502
rthumb 7.27332 -20.4356
lclavicle -1.66979e-013 -4.13472e-014
lhumerus 32.1349 80.4437 55.0405
lradius 16.397
lwrist -39.8753
lhand -5.318 27.782
lfingers 7.12502
lthumb 20.4878 56.7211
rfemur -43.255 10.0136 18.7993
rtibia 37.8709
rfoot -13.4596 6.95106
rtoes -9.5045
lfemur -41.7569 5.71861 -15.3947
ltibia 47.2148
lfoot -20.6553 8.12702
ltoes -17.4285
1505
root 0.440613 16.6319 -2.45048 17.9731 -19.5961 -4.49722
lowerback 20.0412 -4.07109 -9.52958
upperback 6.98781 -7.3647 -4.53553
thorax -2.95057 -3.68902 2.07725
lowerneck -14.375 -7.62134 -11.808
upperneck 23.6622 -14.0021 21.5201
head 12.8423 -5.28594 8.06257
rclavicle -1.01778e-013 3.18055e-015
rhumerus -441.109 -47.6813 -316.429
rradius 18.107
rwrist 58.1767
rhand -19.1344 8.97404
rfingers 7.12502
rthumb 7.17543 -20.8843
lclavicle -1.01778e-013 3.18055e-015
lhumerus 33.7718 80.4482 57.1347
lradius 16.3827
lwrist -39.8901
lhand -5.69389 27.5814
lfingers 7.12502
lthumb 20.1266 56.5589
rfemur -43.1757 9.97566 19.2447
rtibia 37.7713
rfoot -13.3685 6.75971
rtoes -8.93764
lfemur -41.8568 5.57374 -14.8896
ltibia 47.2267
lfoot -20.5651 7.92605
ltoes -17.0073
1506
root 0.40014 16.6343 -2.46961 18.0366 -19.2338 -4.72605
lowerback 20.0594 -4.01966 -9.73226
upperback 7.05194 -7.34955 -4.86864
thorax -2.91023 -3.68235 1.82938
lowerneck -14.4044 -7.62421 -11.9256
upperneck 23.6474 -14.1452 22.0607
head 12.9502 -5.31835 8.29388
rclavicle 3.33958e-014 9.54166e-015
rhumerus -439.993 -47.7201 -317.409
rradius 18.0658
rwrist 58.0977
rhand -19.3933 9.37023
rfingers 7.12502
rthumb 6.92554 -20.4965
lclavicle 3.33958e-014 9.54166e-015
lhumerus 33.3727 79.9163 57.1283
lradius 16.4416
lwrist -39.2265
lhand -6.01382 27.7189
lfingers 7.12502
lthumb 19.8191 56.7284
rfemur -43.0823 9.9924 19.6628
rtibia 37.6693
rfoot -13.3129 6.52339
rtoes -9.1077
lfemur -41.9351 5.42403 -14.3987
ltibia 47.2615
lfoot -20.3458 7.84128
ltoes -17.3652
1507
root 0.360343 16.6349 -2.48858 18.0528 -18.8603 -4.84697
lowerback 20.1281 -3.97653 -10.0142
upperback 7.07419 -7.37192 -5.23112
thorax -2.93113 -3.6898 1.60675
lowerneck -14.2106 -7.58148 -11.8448
upperneck 23.5121 -14.2271 22.4884
head 12.9174 -5.33327 8.44322
rclavicle 2.06736e-014 -2.22639e-014
rhumerus -443.344 -48.9956 -312.49
rradius 18.1933
rwrist 62.2897
rhand -19.0167 9.84528
rfingers 7.12502
rthumb 7.28899 -20.0092
lclavicle 2.06736e-014 -2.22639e-014
lhumerus 33.2936 79.6004 57.4364
lradius 16.492
lwrist -38.9389
lhand -6.12764 27.37
lfingers 7.12502
lthumb 19.7096 56.3908
rfemur -42.9893 9.94959 19.9782
rtibia 37.5662
rfoot -13.3062 6.337
rtoes -9.67942
lfemur -42.0091 5.28142 -14.0251
ltibia 47.2827
lfoot -20.2494 7.86556
ltoes -18.4042
1508
root 0.320163 16.6316 -2.50744 18.1351 -18.409 -5.06169
lowerback 20.1979 -3.94245 -10.1897
upperback 7.09479 -7.38421 -5.55347
thorax -2.96443 -3.6911 1.36734
lowerneck -14.0879 -7.53153 -11.5159
upperneck 23.3637 -14.254 22.6119
head 12.825 -5.32038 8.41775
rclavicle 5.56597e-014 3.18055e-015
rhumerus -445.152 -49.7729 -309.697
rradius 18.2881
rwrist 65.3066
rhand -18.5847 10.0057
rfingers 7.12502
rthumb 7.70599 -19.8338
lclavicle 5.56597e-014 3.18055e-015
lhumerus 36.0364 79.8407 60.5882
lradius 16.4307
lwrist -39.4338
lhand -6.01429 26.5497
lfingers 7.12502
lthumb 19.8186 55.5593
rfemur -42.9355 9.87578 20.4056
rtibia 37.4664
rfoot -13.2462 6.14953
rtoes -9.67445
lfemur -42.1614 5.22836 -13.579
ltibia 47.2989
lfoot -20.169 7.77633
ltoes -19.315
